<?xml version="1.0" encoding="UTF-8" standalone="no"?>
<!DOCTYPE svg PUBLIC "-//W3C//DTD SVG 1.1//EN"
 "http://www.w3.org/Graphics/SVG/1.1/DTD/svg11.dtd">
<!-- Generated by graphviz version 2.43.0 (0)
 -->
<!-- Title: snakemake_dag Pages: 1 -->
<svg width="1204pt" height="404pt"
 viewBox="0.00 0.00 1204.28 404.00" xmlns="http://www.w3.org/2000/svg" xmlns:xlink="http://www.w3.org/1999/xlink">
<g id="graph0" class="graph" transform="scale(1 1) rotate(0) translate(4 400)">
<title>snakemake_dag</title>
<polygon fill="white" stroke="transparent" points="-4,4 -4,-400 1200.28,-400 1200.28,4 -4,4"/>
<!-- 0 -->
<g id="node1" class="node">
<title>0</title>
<path fill="none" stroke="#d85656" stroke-width="2" d="M571.35,-36C571.35,-36 541.35,-36 541.35,-36 535.35,-36 529.35,-30 529.35,-24 529.35,-24 529.35,-12 529.35,-12 529.35,-6 535.35,0 541.35,0 541.35,0 571.35,0 571.35,0 577.35,0 583.35,-6 583.35,-12 583.35,-12 583.35,-24 583.35,-24 583.35,-30 577.35,-36 571.35,-36"/>
<text text-anchor="middle" x="556.35" y="-15.5" font-family="sans" font-size="10.00">all</text>
</g>
<!-- 1 -->
<g id="node2" class="node">
<title>1</title>
<path fill="none" stroke="#5692d8" stroke-width="2" d="M283.85,-324C283.85,-324 198.85,-324 198.85,-324 192.85,-324 186.85,-318 186.85,-312 186.85,-312 186.85,-300 186.85,-300 186.85,-294 192.85,-288 198.85,-288 198.85,-288 283.85,-288 283.85,-288 289.85,-288 295.85,-294 295.85,-300 295.85,-300 295.85,-312 295.85,-312 295.85,-318 289.85,-324 283.85,-324"/>
<text text-anchor="middle" x="241.35" y="-303.5" font-family="sans" font-size="10.00">spaceranger_count</text>
</g>
<!-- 1&#45;&gt;0 -->
<g id="edge9" class="edge">
<title>1&#45;&gt;0</title>
<path fill="none" stroke="grey" stroke-width="2" d="M186.62,-293.8C107,-274.44 -27.87,-228.47 5.35,-144 21.35,-103.32 33.28,-91.61 72.35,-72 150.7,-32.67 419.87,-22.28 519.17,-19.75"/>
<polygon fill="grey" stroke="grey" stroke-width="2" points="519.42,-23.25 529.33,-19.51 519.25,-16.25 519.42,-23.25"/>
</g>
<!-- 4 -->
<g id="node5" class="node">
<title>4</title>
<path fill="none" stroke="#56a9d8" stroke-width="2" d="M294.85,-252C294.85,-252 187.85,-252 187.85,-252 181.85,-252 175.85,-246 175.85,-240 175.85,-240 175.85,-228 175.85,-228 175.85,-222 181.85,-216 187.85,-216 187.85,-216 294.85,-216 294.85,-216 300.85,-216 306.85,-222 306.85,-228 306.85,-228 306.85,-240 306.85,-240 306.85,-246 300.85,-252 294.85,-252"/>
<text text-anchor="middle" x="241.35" y="-231.5" font-family="sans" font-size="10.00">seurat_spatial_analysis</text>
</g>
<!-- 1&#45;&gt;4 -->
<g id="edge19" class="edge">
<title>1&#45;&gt;4</title>
<path fill="none" stroke="grey" stroke-width="2" d="M241.35,-287.7C241.35,-279.98 241.35,-270.71 241.35,-262.11"/>
<polygon fill="grey" stroke="grey" stroke-width="2" points="244.85,-262.1 241.35,-252.1 237.85,-262.1 244.85,-262.1"/>
</g>
<!-- 2 -->
<g id="node3" class="node">
<title>2</title>
<path fill="none" stroke="#d87556" stroke-width="2" d="M436.35,-396C436.35,-396 314.35,-396 314.35,-396 308.35,-396 302.35,-390 302.35,-384 302.35,-384 302.35,-372 302.35,-372 302.35,-366 308.35,-360 314.35,-360 314.35,-360 436.35,-360 436.35,-360 442.35,-360 448.35,-366 448.35,-372 448.35,-372 448.35,-384 448.35,-384 448.35,-390 442.35,-396 436.35,-396"/>
<text text-anchor="middle" x="375.35" y="-375.5" font-family="sans" font-size="10.00">build_combined_reference</text>
</g>
<!-- 2&#45;&gt;1 -->
<g id="edge17" class="edge">
<title>2&#45;&gt;1</title>
<path fill="none" stroke="grey" stroke-width="2" d="M342.57,-359.88C324.72,-350.55 302.45,-338.92 283.34,-328.94"/>
<polygon fill="grey" stroke="grey" stroke-width="2" points="284.74,-325.72 274.25,-324.19 281.5,-331.92 284.74,-325.72"/>
</g>
<!-- 3 -->
<g id="node4" class="node">
<title>3</title>
<path fill="none" stroke="#d88d56" stroke-width="2" d="M549.35,-324C549.35,-324 475.35,-324 475.35,-324 469.35,-324 463.35,-318 463.35,-312 463.35,-312 463.35,-300 463.35,-300 463.35,-294 469.35,-288 475.35,-288 475.35,-288 549.35,-288 549.35,-288 555.35,-288 561.35,-294 561.35,-300 561.35,-300 561.35,-312 561.35,-312 561.35,-318 555.35,-324 549.35,-324"/>
<text text-anchor="middle" x="512.35" y="-303.5" font-family="sans" font-size="10.00">cellranger_count</text>
</g>
<!-- 2&#45;&gt;3 -->
<g id="edge18" class="edge">
<title>2&#45;&gt;3</title>
<path fill="none" stroke="grey" stroke-width="2" d="M408.86,-359.88C427.19,-350.51 450.08,-338.81 469.68,-328.8"/>
<polygon fill="grey" stroke="grey" stroke-width="2" points="471.39,-331.86 478.7,-324.19 468.21,-325.62 471.39,-331.86"/>
</g>
<!-- 3&#45;&gt;0 -->
<g id="edge7" class="edge">
<title>3&#45;&gt;0</title>
<path fill="none" stroke="grey" stroke-width="2" d="M511.68,-287.98C510.59,-249.01 510.34,-150.62 531.35,-72 533.79,-62.86 537.76,-53.37 541.82,-44.98"/>
<polygon fill="grey" stroke="grey" stroke-width="2" points="544.94,-46.56 546.37,-36.06 538.7,-43.38 544.94,-46.56"/>
</g>
<!-- 5 -->
<g id="node6" class="node">
<title>5</title>
<path fill="none" stroke="#56c9d8" stroke-width="2" d="M841.85,-252C841.85,-252 740.85,-252 740.85,-252 734.85,-252 728.85,-246 728.85,-240 728.85,-240 728.85,-228 728.85,-228 728.85,-222 734.85,-216 740.85,-216 740.85,-216 841.85,-216 841.85,-216 847.85,-216 853.85,-222 853.85,-228 853.85,-228 853.85,-240 853.85,-240 853.85,-246 847.85,-252 841.85,-252"/>
<text text-anchor="middle" x="791.35" y="-231.5" font-family="sans" font-size="10.00">seurat_snrna_analysis</text>
</g>
<!-- 3&#45;&gt;5 -->
<g id="edge20" class="edge">
<title>3&#45;&gt;5</title>
<path fill="none" stroke="grey" stroke-width="2" d="M561.58,-292.65C605.12,-281.72 669.22,-265.64 718.66,-253.24"/>
<polygon fill="grey" stroke="grey" stroke-width="2" points="719.81,-256.56 728.66,-250.73 718.11,-249.77 719.81,-256.56"/>
</g>
<!-- 4&#45;&gt;0 -->
<g id="edge1" class="edge">
<title>4&#45;&gt;0</title>
<path fill="none" stroke="grey" stroke-width="2" d="M210.99,-215.9C197.56,-206.87 182.72,-194.61 173.35,-180 147.11,-139.1 124.32,-108.55 156.35,-72 180.13,-44.86 424.71,-27.08 519.29,-21.17"/>
<polygon fill="grey" stroke="grey" stroke-width="2" points="519.51,-24.66 529.27,-20.55 519.08,-17.67 519.51,-24.66"/>
</g>
<!-- 7 -->
<g id="node8" class="node">
<title>7</title>
<path fill="none" stroke="#d8cb56" stroke-width="2" d="M288.35,-180C288.35,-180 194.35,-180 194.35,-180 188.35,-180 182.35,-174 182.35,-168 182.35,-168 182.35,-156 182.35,-156 182.35,-150 188.35,-144 194.35,-144 194.35,-144 288.35,-144 288.35,-144 294.35,-144 300.35,-150 300.35,-156 300.35,-156 300.35,-168 300.35,-168 300.35,-174 294.35,-180 288.35,-180"/>
<text text-anchor="middle" x="241.35" y="-159.5" font-family="sans" font-size="10.00">find_spatial_markers</text>
</g>
<!-- 4&#45;&gt;7 -->
<g id="edge22" class="edge">
<title>4&#45;&gt;7</title>
<path fill="none" stroke="grey" stroke-width="2" d="M241.35,-215.7C241.35,-207.98 241.35,-198.71 241.35,-190.11"/>
<polygon fill="grey" stroke="grey" stroke-width="2" points="244.85,-190.1 241.35,-180.1 237.85,-190.1 244.85,-190.1"/>
</g>
<!-- 11 -->
<g id="node12" class="node">
<title>11</title>
<path fill="none" stroke="#56d8c9" stroke-width="2" d="M113.85,-180C113.85,-180 26.85,-180 26.85,-180 20.85,-180 14.85,-174 14.85,-168 14.85,-168 14.85,-156 14.85,-156 14.85,-150 20.85,-144 26.85,-144 26.85,-144 113.85,-144 113.85,-144 119.85,-144 125.85,-150 125.85,-156 125.85,-156 125.85,-168 125.85,-168 125.85,-174 119.85,-180 113.85,-180"/>
<text text-anchor="middle" x="70.35" y="-159.5" font-family="sans" font-size="10.00">pseudobulk_spatial</text>
</g>
<!-- 4&#45;&gt;11 -->
<g id="edge26" class="edge">
<title>4&#45;&gt;11</title>
<path fill="none" stroke="grey" stroke-width="2" d="M199.52,-215.88C175.93,-206.22 146.29,-194.09 121.35,-183.88"/>
<polygon fill="grey" stroke="grey" stroke-width="2" points="122.62,-180.62 112.04,-180.07 119.97,-187.1 122.62,-180.62"/>
</g>
<!-- 14 -->
<g id="node15" class="node">
<title>14</title>
<path fill="none" stroke="#56d873" stroke-width="2" d="M418.35,-180C418.35,-180 368.35,-180 368.35,-180 362.35,-180 356.35,-174 356.35,-168 356.35,-168 356.35,-156 356.35,-156 356.35,-150 362.35,-144 368.35,-144 368.35,-144 418.35,-144 418.35,-144 424.35,-144 430.35,-150 430.35,-156 430.35,-156 430.35,-168 430.35,-168 430.35,-174 424.35,-180 418.35,-180"/>
<text text-anchor="middle" x="393.35" y="-159.5" font-family="sans" font-size="10.00">plot_umaps</text>
</g>
<!-- 4&#45;&gt;14 -->
<g id="edge29" class="edge">
<title>4&#45;&gt;14</title>
<path fill="none" stroke="grey" stroke-width="2" d="M278.53,-215.88C299.22,-206.35 325.15,-194.41 347.13,-184.28"/>
<polygon fill="grey" stroke="grey" stroke-width="2" points="348.67,-187.43 356.28,-180.07 345.74,-181.07 348.67,-187.43"/>
</g>
<!-- 15 -->
<g id="node16" class="node">
<title>15</title>
<path fill="none" stroke="#59d856" stroke-width="2" d="M472.35,-108C472.35,-108 372.35,-108 372.35,-108 366.35,-108 360.35,-102 360.35,-96 360.35,-96 360.35,-84 360.35,-84 360.35,-78 366.35,-72 372.35,-72 372.35,-72 472.35,-72 472.35,-72 478.35,-72 484.35,-78 484.35,-84 484.35,-84 484.35,-96 484.35,-96 484.35,-102 478.35,-108 472.35,-108"/>
<text text-anchor="middle" x="422.35" y="-87.5" font-family="sans" font-size="10.00">plot_marker_heatmap</text>
</g>
<!-- 4&#45;&gt;15 -->
<g id="edge31" class="edge">
<title>4&#45;&gt;15</title>
<path fill="none" stroke="grey" stroke-width="2" d="M264.45,-215.87C277.82,-205.74 294.82,-192.49 309.35,-180 326.99,-164.83 329.36,-158.75 347.35,-144 360.19,-133.47 375,-122.73 388.05,-113.7"/>
<polygon fill="grey" stroke="grey" stroke-width="2" points="390.06,-116.57 396.34,-108.03 386.11,-110.79 390.06,-116.57"/>
</g>
<!-- 5&#45;&gt;0 -->
<g id="edge13" class="edge">
<title>5&#45;&gt;0</title>
<path fill="none" stroke="grey" stroke-width="2" d="M854.13,-233.27C950.1,-232.24 1126.58,-224.2 1168.35,-180 1201.37,-145.06 1206.86,-107.42 1174.35,-72 1134.99,-29.13 721.43,-20.87 593.71,-19.34"/>
<polygon fill="grey" stroke="grey" stroke-width="2" points="593.67,-15.84 583.63,-19.22 593.59,-22.84 593.67,-15.84"/>
</g>
<!-- 6 -->
<g id="node7" class="node">
<title>6</title>
<path fill="none" stroke="#5673d8" stroke-width="2" d="M995.85,-108C995.85,-108 868.85,-108 868.85,-108 862.85,-108 856.85,-102 856.85,-96 856.85,-96 856.85,-84 856.85,-84 856.85,-78 862.85,-72 868.85,-72 868.85,-72 995.85,-72 995.85,-72 1001.85,-72 1007.85,-78 1007.85,-84 1007.85,-84 1007.85,-96 1007.85,-96 1007.85,-102 1001.85,-108 995.85,-108"/>
<text text-anchor="middle" x="932.35" y="-87.5" font-family="sans" font-size="10.00">stressed_cell_subclustering</text>
</g>
<!-- 5&#45;&gt;6 -->
<g id="edge21" class="edge">
<title>5&#45;&gt;6</title>
<path fill="none" stroke="grey" stroke-width="2" d="M808.35,-215.87C833.23,-190.82 879.67,-144.05 908.11,-115.41"/>
<polygon fill="grey" stroke="grey" stroke-width="2" points="910.72,-117.75 915.28,-108.19 905.75,-112.82 910.72,-117.75"/>
</g>
<!-- 8 -->
<g id="node9" class="node">
<title>8</title>
<path fill="none" stroke="#d8ac56" stroke-width="2" d="M783.35,-180C783.35,-180 695.35,-180 695.35,-180 689.35,-180 683.35,-174 683.35,-168 683.35,-168 683.35,-156 683.35,-156 683.35,-150 689.35,-144 695.35,-144 695.35,-144 783.35,-144 783.35,-144 789.35,-144 795.35,-150 795.35,-156 795.35,-156 795.35,-168 795.35,-168 795.35,-174 789.35,-180 783.35,-180"/>
<text text-anchor="middle" x="739.35" y="-159.5" font-family="sans" font-size="10.00">find_snrna_markers</text>
</g>
<!-- 5&#45;&gt;8 -->
<g id="edge23" class="edge">
<title>5&#45;&gt;8</title>
<path fill="none" stroke="grey" stroke-width="2" d="M778.49,-215.7C772.32,-207.39 764.81,-197.28 758.02,-188.14"/>
<polygon fill="grey" stroke="grey" stroke-width="2" points="760.83,-186.04 752.05,-180.1 755.21,-190.22 760.83,-186.04"/>
</g>
<!-- 12 -->
<g id="node13" class="node">
<title>12</title>
<path fill="none" stroke="#56d8a9" stroke-width="2" d="M1003.85,-180C1003.85,-180 922.85,-180 922.85,-180 916.85,-180 910.85,-174 910.85,-168 910.85,-168 910.85,-156 910.85,-156 910.85,-150 916.85,-144 922.85,-144 922.85,-144 1003.85,-144 1003.85,-144 1009.85,-144 1015.85,-150 1015.85,-156 1015.85,-156 1015.85,-168 1015.85,-168 1015.85,-174 1009.85,-180 1003.85,-180"/>
<text text-anchor="middle" x="963.35" y="-159.5" font-family="sans" font-size="10.00">pseudobulk_snrna</text>
</g>
<!-- 5&#45;&gt;12 -->
<g id="edge27" class="edge">
<title>5&#45;&gt;12</title>
<path fill="none" stroke="grey" stroke-width="2" d="M833.42,-215.88C857.15,-206.22 886.96,-194.09 912.05,-183.88"/>
<polygon fill="grey" stroke="grey" stroke-width="2" points="913.46,-187.08 921.41,-180.07 910.83,-180.6 913.46,-187.08"/>
</g>
<!-- 13 -->
<g id="node14" class="node">
<title>13</title>
<path fill="none" stroke="#8fd856" stroke-width="2" d="M1147.35,-180C1147.35,-180 1065.35,-180 1065.35,-180 1059.35,-180 1053.35,-174 1053.35,-168 1053.35,-168 1053.35,-156 1053.35,-156 1053.35,-150 1059.35,-144 1065.35,-144 1065.35,-144 1147.35,-144 1147.35,-144 1153.35,-144 1159.35,-150 1159.35,-156 1159.35,-156 1159.35,-168 1159.35,-168 1159.35,-174 1153.35,-180 1147.35,-180"/>
<text text-anchor="middle" x="1106.35" y="-159.5" font-family="sans" font-size="10.00">hdwgcna_analysis</text>
</g>
<!-- 5&#45;&gt;13 -->
<g id="edge28" class="edge">
<title>5&#45;&gt;13</title>
<path fill="none" stroke="grey" stroke-width="2" d="M853.96,-219.09C908.85,-206.89 988.27,-189.24 1043.29,-177.01"/>
<polygon fill="grey" stroke="grey" stroke-width="2" points="1044.27,-180.38 1053.27,-174.79 1042.75,-173.55 1044.27,-180.38"/>
</g>
<!-- 5&#45;&gt;14 -->
<g id="edge30" class="edge">
<title>5&#45;&gt;14</title>
<path fill="none" stroke="grey" stroke-width="2" d="M728.72,-221.99C648.81,-207.93 512.36,-183.93 440.62,-171.31"/>
<polygon fill="grey" stroke="grey" stroke-width="2" points="440.98,-167.82 430.52,-169.54 439.76,-174.72 440.98,-167.82"/>
</g>
<!-- 5&#45;&gt;15 -->
<g id="edge34" class="edge">
<title>5&#45;&gt;15</title>
<path fill="none" stroke="grey" stroke-width="2" d="M746.84,-215.87C678.87,-189.72 549.41,-139.9 476.23,-111.74"/>
<polygon fill="grey" stroke="grey" stroke-width="2" points="477.32,-108.4 466.73,-108.08 474.8,-114.94 477.32,-108.4"/>
</g>
<!-- 6&#45;&gt;0 -->
<g id="edge11" class="edge">
<title>6&#45;&gt;0</title>
<path fill="none" stroke="grey" stroke-width="2" d="M856.73,-74.7C851.86,-73.78 847.04,-72.88 842.35,-72 753.05,-55.29 648.01,-35.89 593.46,-25.84"/>
<polygon fill="grey" stroke="grey" stroke-width="2" points="594.03,-22.38 583.56,-24.01 592.76,-29.27 594.03,-22.38"/>
</g>
<!-- 7&#45;&gt;0 -->
<g id="edge5" class="edge">
<title>7&#45;&gt;0</title>
<path fill="none" stroke="grey" stroke-width="2" d="M203.96,-143.8C189.8,-135.2 175.22,-123.32 167.35,-108 160.03,-93.77 156.82,-84.05 167.35,-72 212.84,-19.88 430.78,-17.09 519.08,-18.17"/>
<polygon fill="grey" stroke="grey" stroke-width="2" points="519.13,-21.67 529.18,-18.32 519.24,-14.67 519.13,-21.67"/>
</g>
<!-- 9 -->
<g id="node10" class="node">
<title>9</title>
<path fill="none" stroke="#afd856" stroke-width="2" d="M292.35,-108C292.35,-108 188.35,-108 188.35,-108 182.35,-108 176.35,-102 176.35,-96 176.35,-96 176.35,-84 176.35,-84 176.35,-78 182.35,-72 188.35,-72 188.35,-72 292.35,-72 292.35,-72 298.35,-72 304.35,-78 304.35,-84 304.35,-84 304.35,-96 304.35,-96 304.35,-102 298.35,-108 292.35,-108"/>
<text text-anchor="middle" x="240.35" y="-87.5" font-family="sans" font-size="10.00">go_enrichment_spatial</text>
</g>
<!-- 7&#45;&gt;9 -->
<g id="edge24" class="edge">
<title>7&#45;&gt;9</title>
<path fill="none" stroke="grey" stroke-width="2" d="M241.1,-143.7C240.99,-135.98 240.86,-126.71 240.73,-118.11"/>
<polygon fill="grey" stroke="grey" stroke-width="2" points="244.23,-118.05 240.59,-108.1 237.23,-118.15 244.23,-118.05"/>
</g>
<!-- 7&#45;&gt;15 -->
<g id="edge32" class="edge">
<title>7&#45;&gt;15</title>
<path fill="none" stroke="grey" stroke-width="2" d="M285.62,-143.88C310.7,-134.18 342.24,-121.98 368.71,-111.74"/>
<polygon fill="grey" stroke="grey" stroke-width="2" points="370.15,-114.94 378.21,-108.07 367.62,-108.41 370.15,-114.94"/>
</g>
<!-- 16 -->
<g id="node17" class="node">
<title>16</title>
<path fill="none" stroke="#56d892" stroke-width="2" d="M648.35,-108C648.35,-108 552.35,-108 552.35,-108 546.35,-108 540.35,-102 540.35,-96 540.35,-96 540.35,-84 540.35,-84 540.35,-78 546.35,-72 552.35,-72 552.35,-72 648.35,-72 648.35,-72 654.35,-72 660.35,-78 660.35,-84 660.35,-84 660.35,-96 660.35,-96 660.35,-102 654.35,-108 648.35,-108"/>
<text text-anchor="middle" x="600.35" y="-87.5" font-family="sans" font-size="10.00">plot_venn_and_upset</text>
</g>
<!-- 7&#45;&gt;16 -->
<g id="edge35" class="edge">
<title>7&#45;&gt;16</title>
<path fill="none" stroke="grey" stroke-width="2" d="M300.63,-149.44C363.61,-137.16 463.15,-117.75 530.04,-104.71"/>
<polygon fill="grey" stroke="grey" stroke-width="2" points="530.93,-108.1 540.08,-102.75 529.59,-101.23 530.93,-108.1"/>
</g>
<!-- 8&#45;&gt;0 -->
<g id="edge15" class="edge">
<title>8&#45;&gt;0</title>
<path fill="none" stroke="grey" stroke-width="2" d="M774.03,-143.83C787.65,-135.13 801.81,-123.15 809.35,-108 816.47,-93.67 819.43,-84.42 809.35,-72 782.61,-39.08 657.48,-25.88 593.79,-21.23"/>
<polygon fill="grey" stroke="grey" stroke-width="2" points="593.97,-17.73 583.75,-20.53 593.49,-24.72 593.97,-17.73"/>
</g>
<!-- 10 -->
<g id="node11" class="node">
<title>10</title>
<path fill="none" stroke="#c6d856" stroke-width="2" d="M788.35,-108C788.35,-108 690.35,-108 690.35,-108 684.35,-108 678.35,-102 678.35,-96 678.35,-96 678.35,-84 678.35,-84 678.35,-78 684.35,-72 690.35,-72 690.35,-72 788.35,-72 788.35,-72 794.35,-72 800.35,-78 800.35,-84 800.35,-84 800.35,-96 800.35,-96 800.35,-102 794.35,-108 788.35,-108"/>
<text text-anchor="middle" x="739.35" y="-87.5" font-family="sans" font-size="10.00">go_enrichment_snrna</text>
</g>
<!-- 8&#45;&gt;10 -->
<g id="edge25" class="edge">
<title>8&#45;&gt;10</title>
<path fill="none" stroke="grey" stroke-width="2" d="M739.35,-143.7C739.35,-135.98 739.35,-126.71 739.35,-118.11"/>
<polygon fill="grey" stroke="grey" stroke-width="2" points="742.85,-118.1 739.35,-108.1 735.85,-118.1 742.85,-118.1"/>
</g>
<!-- 8&#45;&gt;15 -->
<g id="edge33" class="edge">
<title>8&#45;&gt;15</title>
<path fill="none" stroke="grey" stroke-width="2" d="M683.04,-148.57C630.42,-136.95 551.61,-119.54 494.42,-106.92"/>
<polygon fill="grey" stroke="grey" stroke-width="2" points="494.88,-103.43 484.36,-104.69 493.37,-110.27 494.88,-103.43"/>
</g>
<!-- 8&#45;&gt;16 -->
<g id="edge36" class="edge">
<title>8&#45;&gt;16</title>
<path fill="none" stroke="grey" stroke-width="2" d="M705.34,-143.88C686.75,-134.51 663.52,-122.81 643.64,-112.8"/>
<polygon fill="grey" stroke="grey" stroke-width="2" points="644.99,-109.56 634.48,-108.19 641.84,-115.81 644.99,-109.56"/>
</g>
<!-- 9&#45;&gt;0 -->
<g id="edge14" class="edge">
<title>9&#45;&gt;0</title>
<path fill="none" stroke="grey" stroke-width="2" d="M304.68,-74.75C369.3,-60.43 466.65,-38.87 519.33,-27.2"/>
<polygon fill="grey" stroke="grey" stroke-width="2" points="520.24,-30.58 529.24,-25 518.72,-23.75 520.24,-30.58"/>
</g>
<!-- 10&#45;&gt;0 -->
<g id="edge16" class="edge">
<title>10&#45;&gt;0</title>
<path fill="none" stroke="grey" stroke-width="2" d="M694.58,-71.88C663.3,-59.91 622.07,-44.14 592.8,-32.94"/>
<polygon fill="grey" stroke="grey" stroke-width="2" points="593.95,-29.64 583.36,-29.33 591.45,-36.17 593.95,-29.64"/>
</g>
<!-- 11&#45;&gt;0 -->
<g id="edge8" class="edge">
<title>11&#45;&gt;0</title>
<path fill="none" stroke="grey" stroke-width="2" d="M70.08,-143.95C70.77,-123.49 75.3,-89.75 96.35,-72 128.5,-44.88 415.59,-26.68 519.24,-20.94"/>
<polygon fill="grey" stroke="grey" stroke-width="2" points="519.45,-24.43 529.25,-20.39 519.07,-17.44 519.45,-24.43"/>
</g>
<!-- 12&#45;&gt;0 -->
<g id="edge6" class="edge">
<title>12&#45;&gt;0</title>
<path fill="none" stroke="grey" stroke-width="2" d="M986.49,-143.69C1009.02,-124.8 1037.19,-94.26 1017.35,-72 989.26,-40.5 698.26,-25.06 593.59,-20.49"/>
<polygon fill="grey" stroke="grey" stroke-width="2" points="593.63,-16.99 583.49,-20.06 593.33,-23.98 593.63,-16.99"/>
</g>
<!-- 13&#45;&gt;0 -->
<g id="edge2" class="edge">
<title>13&#45;&gt;0</title>
<path fill="none" stroke="grey" stroke-width="2" d="M1128.23,-143.82C1149.94,-124.75 1177.31,-93.8 1157.35,-72 1119.24,-30.39 719.52,-21.28 593.9,-19.44"/>
<polygon fill="grey" stroke="grey" stroke-width="2" points="593.68,-15.93 583.64,-19.29 593.59,-22.93 593.68,-15.93"/>
</g>
<!-- 17 -->
<g id="node18" class="node">
<title>17</title>
<path fill="none" stroke="#70d856" stroke-width="2" d="M1136.35,-108C1136.35,-108 1076.35,-108 1076.35,-108 1070.35,-108 1064.35,-102 1064.35,-96 1064.35,-96 1064.35,-84 1064.35,-84 1064.35,-78 1070.35,-72 1076.35,-72 1076.35,-72 1136.35,-72 1136.35,-72 1142.35,-72 1148.35,-78 1148.35,-84 1148.35,-84 1148.35,-96 1148.35,-96 1148.35,-102 1142.35,-108 1136.35,-108"/>
<text text-anchor="middle" x="1106.35" y="-87.5" font-family="sans" font-size="10.00">plot_hdwgcna</text>
</g>
<!-- 13&#45;&gt;17 -->
<g id="edge37" class="edge">
<title>13&#45;&gt;17</title>
<path fill="none" stroke="grey" stroke-width="2" d="M1106.35,-143.7C1106.35,-135.98 1106.35,-126.71 1106.35,-118.11"/>
<polygon fill="grey" stroke="grey" stroke-width="2" points="1109.85,-118.1 1106.35,-108.1 1102.85,-118.1 1109.85,-118.1"/>
</g>
<!-- 14&#45;&gt;0 -->
<g id="edge3" class="edge">
<title>14&#45;&gt;0</title>
<path fill="none" stroke="grey" stroke-width="2" d="M374.66,-143.71C356.52,-124.82 334.09,-94.29 351.35,-72 371.71,-45.71 465.69,-30.1 519.06,-23.22"/>
<polygon fill="grey" stroke="grey" stroke-width="2" points="519.67,-26.67 529.16,-21.95 518.8,-19.72 519.67,-26.67"/>
</g>
<!-- 15&#45;&gt;0 -->
<g id="edge12" class="edge">
<title>15&#45;&gt;0</title>
<path fill="none" stroke="grey" stroke-width="2" d="M455.13,-71.88C474.88,-61.56 500.06,-48.4 520.36,-37.8"/>
<polygon fill="grey" stroke="grey" stroke-width="2" points="522.07,-40.86 529.31,-33.12 518.83,-34.65 522.07,-40.86"/>
</g>
<!-- 16&#45;&gt;0 -->
<g id="edge4" class="edge">
<title>16&#45;&gt;0</title>
<path fill="none" stroke="grey" stroke-width="2" d="M589.47,-71.7C584.36,-63.56 578.15,-53.69 572.5,-44.7"/>
<polygon fill="grey" stroke="grey" stroke-width="2" points="575.38,-42.71 567.1,-36.1 569.46,-46.43 575.38,-42.71"/>
</g>
<!-- 17&#45;&gt;0 -->
<g id="edge10" class="edge">
<title>17&#45;&gt;0</title>
<path fill="none" stroke="grey" stroke-width="2" d="M1064.06,-75.25C1059.46,-74.03 1054.83,-72.91 1050.35,-72 881.92,-37.72 676.39,-24.69 593.56,-20.6"/>
<polygon fill="grey" stroke="grey" stroke-width="2" points="593.55,-17.1 583.39,-20.12 593.21,-24.09 593.55,-17.1"/>
</g>
</g>
</svg>
